<svg width="10" height="10" viewBox="0 0 10 10" fill="none" xmlns="http://www.w3.org/2000/svg">
<path d="M9.00016 5.66683H5.66683V9.00016C5.66683 9.36683 5.36683 9.66683 5.00016 9.66683C4.6335 9.66683 4.3335 9.36683 4.3335 9.00016V5.66683H1.00016C0.633496 5.66683 0.333496 5.36683 0.333496 5.00016C0.333496 4.6335 0.633496 4.3335 1.00016 4.3335H4.3335V1.00016C4.3335 0.633496 4.6335 0.333496 5.00016 0.333496C5.36683 0.333496 5.66683 0.633496 5.66683 1.00016V4.3335H9.00016C9.36683 4.3335 9.66683 4.6335 9.66683 5.00016C9.66683 5.36683 9.36683 5.66683 9.00016 5.66683Z" fill="#686C74"/>
</svg>
