<svg width="14" height="16" viewBox="0 0 14 16" fill="none" xmlns="http://www.w3.org/2000/svg">
<path d="M12.333 1.99984H11.6663V1.33317C11.6663 0.966504 11.3663 0.666504 10.9997 0.666504C10.633 0.666504 10.333 0.966504 10.333 1.33317V1.99984H3.66634V1.33317C3.66634 0.966504 3.36634 0.666504 2.99967 0.666504C2.63301 0.666504 2.33301 0.966504 2.33301 1.33317V1.99984H1.66634C0.933008 1.99984 0.333008 2.59984 0.333008 3.33317V13.9998C0.333008 14.7332 0.933008 15.3332 1.66634 15.3332H12.333C13.0663 15.3332 13.6663 14.7332 13.6663 13.9998V3.33317C13.6663 2.59984 13.0663 1.99984 12.333 1.99984ZM11.6663 13.9998H2.33301C1.96634 13.9998 1.66634 13.6998 1.66634 13.3332V5.33317H12.333V13.3332C12.333 13.6998 12.033 13.9998 11.6663 13.9998Z" fill="white"/>
</svg>
