<svg width="10" height="10" viewBox="0 0 10 10" fill="none" xmlns="http://www.w3.org/2000/svg">
<path d="M9.2 0.806647C8.94 0.546647 8.52 0.546647 8.26 0.806647L5 4.05998L1.74 0.79998C1.48 0.53998 1.06 0.53998 0.799996 0.79998C0.539996 1.05998 0.539996 1.47998 0.799996 1.73998L4.06 4.99998L0.799996 8.25998C0.539996 8.51998 0.539996 8.93998 0.799996 9.19998C1.06 9.45998 1.48 9.45998 1.74 9.19998L5 5.93998L8.26 9.19998C8.52 9.45998 8.94 9.45998 9.2 9.19998C9.46 8.93998 9.46 8.51998 9.2 8.25998L5.94 4.99998L9.2 1.73998C9.45333 1.48665 9.45333 1.05998 9.2 0.806647Z" fill="#686C74"/>
</svg>
