<svg width="12" height="14" viewBox="0 0 12 14" fill="none" xmlns="http://www.w3.org/2000/svg">
<path d="M8 12.333H1.33333V3.66634C1.33333 3.29967 1.03333 2.99967 0.666667 2.99967C0.3 2.99967 0 3.29967 0 3.66634V12.333C0 13.0663 0.6 13.6663 1.33333 13.6663H8C8.36667 13.6663 8.66667 13.3663 8.66667 12.9997C8.66667 12.633 8.36667 12.333 8 12.333ZM11.3333 9.66634V1.66634C11.3333 0.933008 10.7333 0.333008 10 0.333008H4C3.26667 0.333008 2.66667 0.933008 2.66667 1.66634V9.66634C2.66667 10.3997 3.26667 10.9997 4 10.9997H10C10.7333 10.9997 11.3333 10.3997 11.3333 9.66634ZM10 9.66634H4V1.66634H10V9.66634Z" fill="#686C74"/>
</svg>
