<svg width="12" height="16" viewBox="0 0 12 16" fill="none" xmlns="http://www.w3.org/2000/svg">
<path d="M9.0931 13.7173H0.0107173C0.0107173 14.9819 1.02344 16 2.28265 16H9.0931C10.347 16 11.3597 14.9766 11.3597 13.7173V4.32954C11.3597 4.28667 11.3222 4.2438 11.2793 4.2438H9.17348C9.13061 4.2438 9.0931 4.28131 9.0931 4.32954V13.7173ZM9.0931 0C10.347 0 11.3597 1.02344 11.3597 2.28801H2.27729V11.6758C2.27729 11.7187 2.23979 11.7616 2.19156 11.7616H0.0857337C0.042867 11.7616 0 11.724 0 11.6758V2.28801C0 1.02344 1.01273 0 2.27194 0H9.0931Z" fill="#0CAA41"/>
</svg>
