<svg width="15" height="15" viewBox="0 0 15 15" fill="none" xmlns="http://www.w3.org/2000/svg">
<path d="M7.99935 1.66634C10.9393 1.66634 13.3327 4.05967 13.3327 6.99967C13.3327 9.93967 10.9393 12.333 7.99935 12.333C7.21268 12.333 6.43935 12.1597 5.71268 11.813C5.53268 11.7263 5.33935 11.6863 5.13935 11.6863C5.01268 11.6863 4.88602 11.7063 4.76602 11.7397L2.63268 12.3663L3.25935 10.233C3.35268 9.91967 3.32602 9.57967 3.18602 9.28634C2.83935 8.55968 2.66602 7.78634 2.66602 6.99967C2.66602 4.05967 5.05935 1.66634 7.99935 1.66634ZM7.99935 0.333008C4.31935 0.333008 1.33268 3.31967 1.33268 6.99967C1.33268 8.02634 1.57268 8.98634 1.97935 9.85968L0.666016 14.333L5.13935 13.0197C6.01268 13.4263 6.97268 13.6663 7.99935 13.6663C11.6793 13.6663 14.666 10.6797 14.666 6.99967C14.666 3.31967 11.6793 0.333008 7.99935 0.333008Z" fill="white"/>
</svg>
