<svg width="14" height="14" viewBox="0 0 14 14" fill="none" xmlns="http://www.w3.org/2000/svg">
<path d="M6.9935 0.333252C3.3135 0.333252 0.333496 3.31992 0.333496 6.99992C0.333496 10.6799 3.3135 13.6666 6.9935 13.6666C10.6802 13.6666 13.6668 10.6799 13.6668 6.99992C13.6668 3.31992 10.6802 0.333252 6.9935 0.333252ZM9.14683 10.5933L7.00016 9.29992L4.8535 10.5933C4.60016 10.7466 4.28683 10.5199 4.3535 10.2333L4.92016 7.79325L3.0335 6.15992C2.8135 5.96659 2.9335 5.59992 3.22683 5.57325L5.72016 5.35992L6.6935 3.05992C6.80683 2.78659 7.1935 2.78659 7.30683 3.05992L8.28016 5.35325L10.7735 5.56659C11.0668 5.59325 11.1868 5.95992 10.9602 6.15325L9.0735 7.78659L9.64016 10.2333C9.70683 10.5199 9.40016 10.7466 9.14683 10.5933Z" fill="#686C74"/>
</svg>
