<svg width="10" height="12" viewBox="0 0 10 12" fill="none" xmlns="http://www.w3.org/2000/svg">
<path d="M1.93398 4.66648H2.99398V7.99982C2.99398 8.36649 3.29398 8.66648 3.66065 8.66648H6.32732C6.69398 8.66648 6.99398 8.36649 6.99398 7.99982V4.66648H8.05398C8.64732 4.66648 8.94732 3.94648 8.52732 3.52648L5.46732 0.466484C5.20732 0.206484 4.78732 0.206484 4.52732 0.466484L1.46732 3.52648C1.04732 3.94648 1.34065 4.66648 1.93398 4.66648ZM0.333984 10.6665C0.333984 11.0332 0.633984 11.3332 1.00065 11.3332H9.00065C9.36732 11.3332 9.66732 11.0332 9.66732 10.6665C9.66732 10.2998 9.36732 9.99982 9.00065 9.99982H1.00065C0.633984 9.99982 0.333984 10.2998 0.333984 10.6665Z" fill="#686C74"/>
</svg>
